<svg width="150" height="89" viewBox="0 0 150 89" fill="none" xmlns="http://www.w3.org/2000/svg">
<path d="M35 19H41V23H35V19Z" fill="#73BF43"/>
<path d="M35 24H41V28H35V24Z" fill="#73BF43"/>
<path d="M43 19H49V23H43V19Z" fill="#73BF43"/>
<path d="M43 24H49V28H43V24Z" fill="#73BF43"/>
<path d="M88 19H94V23H88V19Z" fill="#73BF43"/>
<path d="M88 24H94V28H88V24Z" fill="#73BF43"/>
<path d="M96 19H102V23H96V19Z" fill="#73BF43"/>
<path d="M96 24H102V28H96V24Z" fill="#73BF43"/>
<path d="M42.0008 0L3.63477 29H11.6348L42.0008 6.5L71.5008 29H80.5008L42.0008 0Z" fill="#73BF43"/>
<path d="M94.866 0L70 19L74 22.5L94.866 6.5L124.366 29H133.366L117 16.6723V7.5H109V10.6464L94.866 0Z" fill="#73BF43"/>
<path d="M38 45.5H0L2.42889e-06 70H12V54H27C35 54 38 48.5 38 45.5Z" fill="#55A4DA"/>
<path d="M0 29H26C32.6274 29 38 34.3726 38 41H0V29Z" fill="#55A4DA"/>
<path d="M49 29H60.5L68 41H49V29Z" fill="#55A4DA"/>
<path d="M81 29H93V41H74L81 29Z" fill="#55A4DA"/>
<path d="M118.5 29H135.5L139.5 41H115L118.5 29Z" fill="#55A4DA"/>
<rect x="35" y="60" width="10" height="10" fill="#55A4DA"/>
<rect x="96" y="60" width="10" height="10" fill="#55A4DA"/>
<path d="M93 45.5H49V70H61.4474V53L70.9737 69.5L80.5 53V70H93V45.5Z" fill="#55A4DA"/>
<path d="M114.5 44.5L108 69.5H119.5L121.5 64H132.5L134.5 69.5H147L140.5 44.5H128.5L131.5 54H123.5L126.5 44.5H114.5Z" fill="#55A4DA"/>
<path d="M0.546875 87.9998V72.3198H6.42687C7.63146 72.3198 8.64208 72.5291 9.45875 72.9477C10.2805 73.3662 10.9007 73.9532 11.3192 74.7086C11.7429 75.4589 11.9547 76.3343 11.9547 77.3347C11.9547 78.3402 11.7403 79.213 11.3116 79.9531C10.8879 80.6881 10.2627 81.2572 9.43578 81.6605C8.60891 82.0586 7.59318 82.2577 6.38859 82.2577H2.20062V79.8995H6.00578C6.71016 79.8995 7.28693 79.8026 7.73609 79.6086C8.18526 79.4095 8.51703 79.1211 8.73141 78.7434C8.95088 78.3606 9.06062 77.891 9.06062 77.3347C9.06062 76.7783 8.95088 76.3036 8.73141 75.9106C8.51193 75.5125 8.1776 75.2114 7.72844 75.0072C7.27927 74.7979 6.69995 74.6933 5.99047 74.6933H3.38734V87.9998H0.546875ZM8.64719 80.8948L12.5289 87.9998H9.35922L5.54641 80.8948H8.64719Z" fill="#73BF43"/>
<path d="M14.3537 87.9998V72.3198H24.5518V74.7009H17.1942V78.9578H24.0235V81.3389H17.1942V85.6187H24.6131V87.9998H14.3537Z" fill="#73BF43"/>
<path d="M40.1196 72.3198V87.9998H37.593L30.2047 77.3194H30.0746V87.9998H27.2341V72.3198H29.776L37.1566 83.008H37.2944V72.3198H40.1196Z" fill="#73BF43"/>
<path d="M57.01 80.1598C57.01 81.8493 56.6935 83.2964 56.0606 84.5009C55.4328 85.7004 54.5753 86.6192 53.4881 87.2572C52.406 87.8952 51.1784 88.2142 49.8054 88.2142C48.4324 88.2142 47.2023 87.8952 46.1151 87.2572C45.033 86.6141 44.1755 85.6928 43.5426 84.4933C42.9148 83.2887 42.6009 81.8442 42.6009 80.1598C42.6009 78.4704 42.9148 77.0259 43.5426 75.8264C44.1755 74.6218 45.033 73.7005 46.1151 73.0625C47.2023 72.4245 48.4324 72.1055 49.8054 72.1055C51.1784 72.1055 52.406 72.4245 53.4881 73.0625C54.5753 73.7005 55.4328 74.6218 56.0606 75.8264C56.6935 77.0259 57.01 78.4704 57.01 80.1598ZM54.1542 80.1598C54.1542 78.9706 53.9679 77.9676 53.5953 77.1509C53.2278 76.3292 52.7173 75.709 52.064 75.2905C51.4107 74.8668 50.6578 74.655 49.8054 74.655C48.953 74.655 48.2002 74.8668 47.5468 75.2905C46.8935 75.709 46.3805 76.3292 46.0079 77.1509C45.6404 77.9676 45.4567 78.9706 45.4567 80.1598C45.4567 81.3491 45.6404 82.3546 46.0079 83.1764C46.3805 83.9931 46.8935 84.6132 47.5468 85.0369C48.2002 85.4554 48.953 85.6647 49.8054 85.6647C50.6578 85.6647 51.4107 85.4554 52.064 85.0369C52.7173 84.6132 53.2278 83.9931 53.5953 83.1764C53.9679 82.3546 54.1542 81.3491 54.1542 80.1598Z" fill="#73BF43"/>
<path d="M60.7354 72.3198L64.8162 84.6617H64.977L69.0501 72.3198H72.1738L66.646 87.9998H63.1395L57.6193 72.3198H60.7354Z" fill="#73BF43"/>
<path d="M74.2054 87.9998H71.1735L76.6936 72.3198H80.2002L85.728 87.9998H82.6961L78.5082 75.5355H78.3857L74.2054 87.9998ZM74.3049 81.8519H82.5736V84.1334H74.3049V81.8519Z" fill="#73BF43"/>
<path d="M84.9937 74.7009V72.3198H97.504V74.7009H92.6576V87.9998H89.8401V74.7009H84.9937Z" fill="#73BF43"/>
<path d="M102.541 72.3198V87.9998H99.7001V72.3198H102.541Z" fill="#73BF43"/>
<path d="M119.412 80.1598C119.412 81.8493 119.095 83.2964 118.462 84.5009C117.835 85.7004 116.977 86.6192 115.89 87.2572C114.808 87.8952 113.58 88.2142 112.207 88.2142C110.834 88.2142 109.604 87.8952 108.517 87.2572C107.435 86.6141 106.577 85.6928 105.944 84.4933C105.317 83.2887 105.003 81.8442 105.003 80.1598C105.003 78.4704 105.317 77.0259 105.944 75.8264C106.577 74.6218 107.435 73.7005 108.517 73.0625C109.604 72.4245 110.834 72.1055 112.207 72.1055C113.58 72.1055 114.808 72.4245 115.89 73.0625C116.977 73.7005 117.835 74.6218 118.462 75.8264C119.095 77.0259 119.412 78.4704 119.412 80.1598ZM116.556 80.1598C116.556 78.9706 116.37 77.9676 115.997 77.1509C115.63 76.3292 115.119 75.709 114.466 75.2905C113.813 74.8668 113.06 74.655 112.207 74.655C111.355 74.655 110.602 74.8668 109.949 75.2905C109.295 75.709 108.782 76.3292 108.41 77.1509C108.042 77.9676 107.859 78.9706 107.859 80.1598C107.859 81.3491 108.042 82.3546 108.41 83.1764C108.782 83.9931 109.295 84.6132 109.949 85.0369C110.602 85.4554 111.355 85.6647 112.207 85.6647C113.06 85.6647 113.813 85.4554 114.466 85.0369C115.119 84.6132 115.63 83.9931 115.997 83.1764C116.37 82.3546 116.556 81.3491 116.556 80.1598Z" fill="#73BF43"/>
<path d="M134.767 72.3198V87.9998H132.241L124.852 77.3194H124.722V87.9998H121.882V72.3198H124.424L131.804 83.008H131.942V72.3198H134.767Z" fill="#73BF43"/>
<path d="M146.168 76.6303C146.097 75.9617 145.795 75.441 145.265 75.0684C144.739 74.6958 144.055 74.5095 143.213 74.5095C142.621 74.5095 142.113 74.5989 141.689 74.7775C141.265 74.9561 140.941 75.1986 140.717 75.5048C140.492 75.8111 140.377 76.1607 140.372 76.5538C140.372 76.8804 140.446 77.1637 140.594 77.4036C140.747 77.6435 140.954 77.8477 141.214 78.0161C141.475 78.1794 141.763 78.3172 142.08 78.4295C142.396 78.5418 142.715 78.6362 143.037 78.7128L144.507 79.0803C145.099 79.2181 145.668 79.4044 146.214 79.6392C146.765 79.874 147.258 80.1701 147.692 80.5273C148.131 80.8846 148.478 81.3159 148.733 81.8212C148.988 82.3266 149.116 82.9186 149.116 83.5975C149.116 84.5162 148.881 85.3253 148.411 86.0245C147.942 86.7187 147.263 87.2623 146.375 87.6553C145.492 88.0432 144.422 88.2372 143.167 88.2372C141.947 88.2372 140.888 88.0483 139.989 87.6706C139.096 87.2929 138.397 86.7417 137.892 86.0169C137.391 85.2921 137.121 84.4091 137.08 83.3678H139.875C139.915 83.914 140.084 84.3682 140.38 84.7306C140.676 85.093 141.061 85.3635 141.536 85.5422C142.016 85.7208 142.552 85.8102 143.144 85.8102C143.761 85.8102 144.302 85.7183 144.767 85.5345C145.236 85.3457 145.604 85.0854 145.869 84.7536C146.135 84.4167 146.27 84.0237 146.275 83.5745C146.27 83.1662 146.15 82.8293 145.915 82.5639C145.681 82.2934 145.351 82.0688 144.928 81.8902C144.509 81.7064 144.019 81.5431 143.458 81.4002L141.674 80.9408C140.382 80.609 139.362 80.1062 138.611 79.4325C137.866 78.7536 137.493 77.8528 137.493 76.7298C137.493 75.806 137.744 74.997 138.244 74.3028C138.749 73.6086 139.436 73.0702 140.303 72.6873C141.171 72.2994 142.154 72.1055 143.251 72.1055C144.364 72.1055 145.339 72.2994 146.176 72.6873C147.018 73.0702 147.679 73.6035 148.159 74.2875C148.638 74.9664 148.886 75.7473 148.901 76.6303H146.168Z" fill="#73BF43"/>
</svg>
