<svg width="20" height="17" viewBox="0 0 20 17" fill="none" xmlns="http://www.w3.org/2000/svg">
<path d="M19 4.5L15.4392 6.47822C13.454 7.58112 12.4614 8.13258 11.4102 8.34878C10.4798 8.54012 9.52021 8.54012 8.58984 8.34878C7.53864 8.13258 6.54603 7.58113 4.5608 6.47822L1 4.5M4.2 15.5H15.8C16.9201 15.5 17.4802 15.5 17.908 15.282C18.2843 15.0903 18.5903 14.7843 18.782 14.408C19 13.9802 19 13.4201 19 12.3V4.7C19 3.5799 19 3.01984 18.782 2.59202C18.5903 2.21569 18.2843 1.90973 17.908 1.71799C17.4802 1.5 16.9201 1.5 15.8 1.5H4.2C3.0799 1.5 2.51984 1.5 2.09202 1.71799C1.71569 1.90973 1.40973 2.21569 1.21799 2.59202C1 3.01984 1 3.57989 1 4.7V12.3C1 13.4201 1 13.9802 1.21799 14.408C1.40973 14.7843 1.71569 15.0903 2.09202 15.282C2.51984 15.5 3.07989 15.5 4.2 15.5Z" stroke="#0070BD" stroke-width="2" stroke-linecap="round" stroke-linejoin="round"/>
</svg>
